<mxfile host="Electron" modified="2023-07-31T16:49:14.357Z" agent="Mozilla/5.0 (Windows NT 10.0; Win64; x64) AppleWebKit/537.36 (KHTML, like Gecko) draw.io/21.3.7 Chrome/112.0.5615.204 Electron/24.5.0 Safari/537.36" etag="VhnVap3nBI-GSOFbYt4f" version="21.3.7" type="device">
  <diagram id="R2lEEEUBdFMjLlhIrx00" name="Page-1">
    <mxGraphModel dx="1760" dy="2148" grid="1" gridSize="10" guides="1" tooltips="1" connect="1" arrows="1" fold="1" page="1" pageScale="1" pageWidth="850" pageHeight="1100" math="0" shadow="0" extFonts="Permanent Marker^https://fonts.googleapis.com/css?family=Permanent+Marker">
      <root>
        <mxCell id="0" />
        <mxCell id="1" parent="0" />
        <mxCell id="gLofOqiBvSkkC2DL_xkw-1" value="&lt;span&gt;Customer&lt;/span&gt;" style="rounded=1;arcSize=10;whiteSpace=wrap;html=1;align=center;fontStyle=1" vertex="1" parent="1">
          <mxGeometry x="230" y="200" width="100" height="30" as="geometry" />
        </mxCell>
        <mxCell id="gLofOqiBvSkkC2DL_xkw-2" value="&lt;span&gt;Reservation &lt;br&gt;ID&lt;/span&gt;" style="ellipse;whiteSpace=wrap;html=1;align=center;fontStyle=5;" vertex="1" parent="1">
          <mxGeometry x="240" y="95" width="80" height="50" as="geometry" />
        </mxCell>
        <mxCell id="gLofOqiBvSkkC2DL_xkw-3" value="&lt;span&gt;C_Name&lt;/span&gt;" style="ellipse;whiteSpace=wrap;html=1;align=center;fontStyle=1" vertex="1" parent="1">
          <mxGeometry x="170" y="140" width="70" height="40" as="geometry" />
        </mxCell>
        <mxCell id="gLofOqiBvSkkC2DL_xkw-4" value="&lt;span&gt;Address&lt;/span&gt;" style="ellipse;whiteSpace=wrap;html=1;align=center;fontStyle=1" vertex="1" parent="1">
          <mxGeometry x="310" y="140" width="70" height="40" as="geometry" />
        </mxCell>
        <mxCell id="gLofOqiBvSkkC2DL_xkw-5" value="&lt;span&gt;Telephone Number&lt;/span&gt;" style="ellipse;shape=doubleEllipse;margin=3;whiteSpace=wrap;html=1;align=center;fontStyle=1" vertex="1" parent="1">
          <mxGeometry x="120" y="190" width="80" height="50" as="geometry" />
        </mxCell>
        <mxCell id="gLofOqiBvSkkC2DL_xkw-7" value="&lt;span&gt;No. of Guests Accompanying&lt;/span&gt;" style="ellipse;whiteSpace=wrap;html=1;align=center;dashed=1;fontStyle=1" vertex="1" parent="1">
          <mxGeometry x="230" y="270" width="110" height="55" as="geometry" />
        </mxCell>
        <mxCell id="gLofOqiBvSkkC2DL_xkw-8" value="&lt;span&gt;preference&lt;/span&gt;" style="ellipse;whiteSpace=wrap;html=1;align=center;fontStyle=1" vertex="1" parent="1">
          <mxGeometry x="140" y="250" width="80" height="40" as="geometry" />
        </mxCell>
        <mxCell id="gLofOqiBvSkkC2DL_xkw-9" value="" style="endArrow=none;html=1;rounded=0;exitX=0.5;exitY=1;exitDx=0;exitDy=0;fontStyle=1" edge="1" parent="1" source="gLofOqiBvSkkC2DL_xkw-2" target="gLofOqiBvSkkC2DL_xkw-1">
          <mxGeometry relative="1" as="geometry">
            <mxPoint x="240" y="180" as="sourcePoint" />
            <mxPoint x="400" y="180" as="targetPoint" />
          </mxGeometry>
        </mxCell>
        <mxCell id="gLofOqiBvSkkC2DL_xkw-10" value="" style="endArrow=none;html=1;rounded=0;exitX=0.75;exitY=0;exitDx=0;exitDy=0;entryX=0.5;entryY=1;entryDx=0;entryDy=0;fontStyle=1" edge="1" parent="1" source="gLofOqiBvSkkC2DL_xkw-1" target="gLofOqiBvSkkC2DL_xkw-4">
          <mxGeometry relative="1" as="geometry">
            <mxPoint x="310" y="190" as="sourcePoint" />
            <mxPoint x="470" y="190" as="targetPoint" />
          </mxGeometry>
        </mxCell>
        <mxCell id="gLofOqiBvSkkC2DL_xkw-11" value="" style="endArrow=none;html=1;rounded=0;exitX=0.25;exitY=0;exitDx=0;exitDy=0;entryX=0.784;entryY=0.912;entryDx=0;entryDy=0;entryPerimeter=0;fontStyle=1" edge="1" parent="1" source="gLofOqiBvSkkC2DL_xkw-1" target="gLofOqiBvSkkC2DL_xkw-3">
          <mxGeometry relative="1" as="geometry">
            <mxPoint x="315" y="210" as="sourcePoint" />
            <mxPoint x="355" y="190" as="targetPoint" />
          </mxGeometry>
        </mxCell>
        <mxCell id="gLofOqiBvSkkC2DL_xkw-12" value="" style="endArrow=none;html=1;rounded=0;exitX=1;exitY=0.5;exitDx=0;exitDy=0;entryX=0;entryY=0.5;entryDx=0;entryDy=0;fontStyle=1" edge="1" parent="1" source="gLofOqiBvSkkC2DL_xkw-5" target="gLofOqiBvSkkC2DL_xkw-1">
          <mxGeometry relative="1" as="geometry">
            <mxPoint x="220" y="220" as="sourcePoint" />
            <mxPoint x="380" y="220" as="targetPoint" />
          </mxGeometry>
        </mxCell>
        <mxCell id="gLofOqiBvSkkC2DL_xkw-13" value="" style="endArrow=none;html=1;rounded=0;exitX=1;exitY=0;exitDx=0;exitDy=0;entryX=0.228;entryY=1.027;entryDx=0;entryDy=0;entryPerimeter=0;fontStyle=1" edge="1" parent="1" source="gLofOqiBvSkkC2DL_xkw-8" target="gLofOqiBvSkkC2DL_xkw-1">
          <mxGeometry relative="1" as="geometry">
            <mxPoint x="220" y="240" as="sourcePoint" />
            <mxPoint x="380" y="240" as="targetPoint" />
          </mxGeometry>
        </mxCell>
        <mxCell id="gLofOqiBvSkkC2DL_xkw-14" value="" style="endArrow=none;html=1;rounded=0;exitX=0.451;exitY=-0.015;exitDx=0;exitDy=0;exitPerimeter=0;entryX=0.5;entryY=1;entryDx=0;entryDy=0;fontStyle=1" edge="1" parent="1" source="gLofOqiBvSkkC2DL_xkw-7" target="gLofOqiBvSkkC2DL_xkw-1">
          <mxGeometry relative="1" as="geometry">
            <mxPoint x="280" y="250" as="sourcePoint" />
            <mxPoint x="440" y="250" as="targetPoint" />
          </mxGeometry>
        </mxCell>
        <mxCell id="gLofOqiBvSkkC2DL_xkw-15" value="&lt;span&gt;Tours&lt;/span&gt;" style="rounded=1;arcSize=10;whiteSpace=wrap;html=1;align=center;fontStyle=1" vertex="1" parent="1">
          <mxGeometry x="610" y="200" width="100" height="30" as="geometry" />
        </mxCell>
        <mxCell id="gLofOqiBvSkkC2DL_xkw-16" value="&lt;span&gt;Tour Name&lt;/span&gt;" style="ellipse;whiteSpace=wrap;html=1;align=center;fontStyle=1" vertex="1" parent="1">
          <mxGeometry x="560" y="155" width="70" height="30" as="geometry" />
        </mxCell>
        <mxCell id="gLofOqiBvSkkC2DL_xkw-18" value="&lt;span&gt;Category&lt;/span&gt;" style="ellipse;whiteSpace=wrap;html=1;align=center;fontStyle=1" vertex="1" parent="1">
          <mxGeometry x="690" y="150" width="70" height="30" as="geometry" />
        </mxCell>
        <mxCell id="gLofOqiBvSkkC2DL_xkw-19" value="&lt;span&gt;Tour Date&lt;/span&gt;" style="ellipse;whiteSpace=wrap;html=1;align=center;dashed=1;fontStyle=1" vertex="1" parent="1">
          <mxGeometry x="700" y="280" width="70" height="40" as="geometry" />
        </mxCell>
        <mxCell id="gLofOqiBvSkkC2DL_xkw-21" value="&lt;span&gt;Tour &lt;br&gt;Location&lt;/span&gt;" style="ellipse;whiteSpace=wrap;html=1;align=center;fontStyle=1" vertex="1" parent="1">
          <mxGeometry x="610" y="277.5" width="80" height="40" as="geometry" />
        </mxCell>
        <mxCell id="gLofOqiBvSkkC2DL_xkw-22" value="&lt;span&gt;Rate&lt;/span&gt;" style="ellipse;whiteSpace=wrap;html=1;align=center;fontStyle=1" vertex="1" parent="1">
          <mxGeometry x="560" y="240" width="40" height="20" as="geometry" />
        </mxCell>
        <mxCell id="gLofOqiBvSkkC2DL_xkw-24" value="&lt;span style=&quot;border-color: var(--border-color);&quot;&gt;Max_No_of&lt;br style=&quot;border-color: var(--border-color);&quot;&gt;Members&lt;/span&gt;" style="ellipse;whiteSpace=wrap;html=1;align=center;fontStyle=1" vertex="1" parent="1">
          <mxGeometry x="510" y="272.5" width="90" height="50" as="geometry" />
        </mxCell>
        <mxCell id="gLofOqiBvSkkC2DL_xkw-25" value="&lt;span&gt;Tour ID&lt;/span&gt;" style="ellipse;whiteSpace=wrap;html=1;align=center;fontStyle=5;" vertex="1" parent="1">
          <mxGeometry x="630" y="120" width="60" height="30" as="geometry" />
        </mxCell>
        <mxCell id="gLofOqiBvSkkC2DL_xkw-26" value="" style="endArrow=none;html=1;rounded=0;exitX=0.757;exitY=0.938;exitDx=0;exitDy=0;exitPerimeter=0;entryX=0.25;entryY=0;entryDx=0;entryDy=0;fontStyle=1" edge="1" parent="1" source="gLofOqiBvSkkC2DL_xkw-16" target="gLofOqiBvSkkC2DL_xkw-15">
          <mxGeometry relative="1" as="geometry">
            <mxPoint x="640" y="180" as="sourcePoint" />
            <mxPoint x="800" y="180" as="targetPoint" />
          </mxGeometry>
        </mxCell>
        <mxCell id="gLofOqiBvSkkC2DL_xkw-27" value="" style="endArrow=none;html=1;rounded=0;exitX=0.5;exitY=1;exitDx=0;exitDy=0;entryX=0.5;entryY=0;entryDx=0;entryDy=0;fontStyle=1" edge="1" parent="1" source="gLofOqiBvSkkC2DL_xkw-25" target="gLofOqiBvSkkC2DL_xkw-15">
          <mxGeometry relative="1" as="geometry">
            <mxPoint x="650" y="180" as="sourcePoint" />
            <mxPoint x="810" y="180" as="targetPoint" />
          </mxGeometry>
        </mxCell>
        <mxCell id="gLofOqiBvSkkC2DL_xkw-28" value="" style="endArrow=none;html=1;rounded=0;exitX=0.75;exitY=0;exitDx=0;exitDy=0;entryX=0.5;entryY=1;entryDx=0;entryDy=0;fontStyle=1" edge="1" parent="1" source="gLofOqiBvSkkC2DL_xkw-15" target="gLofOqiBvSkkC2DL_xkw-18">
          <mxGeometry relative="1" as="geometry">
            <mxPoint x="680" y="190" as="sourcePoint" />
            <mxPoint x="840" y="190" as="targetPoint" />
          </mxGeometry>
        </mxCell>
        <mxCell id="gLofOqiBvSkkC2DL_xkw-29" value="" style="endArrow=none;html=1;rounded=0;exitX=0.784;exitY=0.097;exitDx=0;exitDy=0;exitPerimeter=0;entryX=0.25;entryY=1;entryDx=0;entryDy=0;fontStyle=1" edge="1" parent="1" source="gLofOqiBvSkkC2DL_xkw-24" target="gLofOqiBvSkkC2DL_xkw-15">
          <mxGeometry relative="1" as="geometry">
            <mxPoint x="570" y="250" as="sourcePoint" />
            <mxPoint x="730" y="250" as="targetPoint" />
          </mxGeometry>
        </mxCell>
        <mxCell id="gLofOqiBvSkkC2DL_xkw-30" value="" style="endArrow=none;html=1;rounded=0;exitX=0.5;exitY=0;exitDx=0;exitDy=0;entryX=0.5;entryY=1;entryDx=0;entryDy=0;fontStyle=1" edge="1" parent="1" source="gLofOqiBvSkkC2DL_xkw-21" target="gLofOqiBvSkkC2DL_xkw-15">
          <mxGeometry relative="1" as="geometry">
            <mxPoint x="660" y="260" as="sourcePoint" />
            <mxPoint x="820" y="260" as="targetPoint" />
          </mxGeometry>
        </mxCell>
        <mxCell id="gLofOqiBvSkkC2DL_xkw-31" value="" style="endArrow=none;html=1;rounded=0;exitX=0.75;exitY=1;exitDx=0;exitDy=0;entryX=0.304;entryY=0.003;entryDx=0;entryDy=0;entryPerimeter=0;fontStyle=1" edge="1" parent="1" source="gLofOqiBvSkkC2DL_xkw-15" target="gLofOqiBvSkkC2DL_xkw-19">
          <mxGeometry relative="1" as="geometry">
            <mxPoint x="710" y="250" as="sourcePoint" />
            <mxPoint x="870" y="250" as="targetPoint" />
          </mxGeometry>
        </mxCell>
        <mxCell id="gLofOqiBvSkkC2DL_xkw-32" value="" style="endArrow=none;html=1;rounded=0;exitX=1;exitY=0;exitDx=0;exitDy=0;fontStyle=1" edge="1" parent="1" source="gLofOqiBvSkkC2DL_xkw-22">
          <mxGeometry relative="1" as="geometry">
            <mxPoint x="580" y="230" as="sourcePoint" />
            <mxPoint x="610" y="230" as="targetPoint" />
          </mxGeometry>
        </mxCell>
        <mxCell id="gLofOqiBvSkkC2DL_xkw-34" value="&lt;span&gt;Book&lt;/span&gt;" style="shape=rhombus;perimeter=rhombusPerimeter;whiteSpace=wrap;html=1;align=center;fontStyle=1" vertex="1" parent="1">
          <mxGeometry x="410" y="195" width="90" height="40" as="geometry" />
        </mxCell>
        <mxCell id="gLofOqiBvSkkC2DL_xkw-35" value="" style="endArrow=none;html=1;rounded=0;exitX=1;exitY=0.5;exitDx=0;exitDy=0;entryX=0;entryY=0.5;entryDx=0;entryDy=0;fontStyle=1" edge="1" parent="1" source="gLofOqiBvSkkC2DL_xkw-1" target="gLofOqiBvSkkC2DL_xkw-34">
          <mxGeometry relative="1" as="geometry">
            <mxPoint x="330" y="220" as="sourcePoint" />
            <mxPoint x="490" y="220" as="targetPoint" />
          </mxGeometry>
        </mxCell>
        <mxCell id="gLofOqiBvSkkC2DL_xkw-36" value="" style="endArrow=none;html=1;rounded=0;exitX=1;exitY=0.5;exitDx=0;exitDy=0;entryX=0;entryY=0.5;entryDx=0;entryDy=0;fontStyle=1" edge="1" parent="1" source="gLofOqiBvSkkC2DL_xkw-34" target="gLofOqiBvSkkC2DL_xkw-15">
          <mxGeometry relative="1" as="geometry">
            <mxPoint x="510" y="214.94000000000003" as="sourcePoint" />
            <mxPoint x="590" y="214.94000000000003" as="targetPoint" />
          </mxGeometry>
        </mxCell>
        <mxCell id="gLofOqiBvSkkC2DL_xkw-37" value="&lt;span&gt;Equipment&lt;/span&gt;" style="rounded=1;arcSize=10;whiteSpace=wrap;html=1;align=center;fontStyle=1" vertex="1" parent="1">
          <mxGeometry x="620" y="30" width="100" height="30" as="geometry" />
        </mxCell>
        <mxCell id="gLofOqiBvSkkC2DL_xkw-38" value="&lt;span&gt;Item Code&lt;/span&gt;" style="ellipse;whiteSpace=wrap;html=1;align=center;fontStyle=5;" vertex="1" parent="1">
          <mxGeometry x="635" y="-60" width="70" height="30" as="geometry" />
        </mxCell>
        <mxCell id="gLofOqiBvSkkC2DL_xkw-39" value="&lt;span&gt;Description&lt;/span&gt;" style="ellipse;whiteSpace=wrap;html=1;align=center;fontStyle=1" vertex="1" parent="1">
          <mxGeometry x="705" y="-30" width="70" height="40" as="geometry" />
        </mxCell>
        <mxCell id="gLofOqiBvSkkC2DL_xkw-40" value="&lt;span&gt;Rent Rate&lt;/span&gt;" style="ellipse;whiteSpace=wrap;html=1;align=center;fontStyle=1" vertex="1" parent="1">
          <mxGeometry x="565" y="-30" width="70" height="40" as="geometry" />
        </mxCell>
        <mxCell id="gLofOqiBvSkkC2DL_xkw-41" value="&lt;span&gt;Quantity in Hand.&lt;/span&gt;" style="ellipse;whiteSpace=wrap;html=1;align=center;fontStyle=1" vertex="1" parent="1">
          <mxGeometry x="750" y="25" width="80" height="40" as="geometry" />
        </mxCell>
        <mxCell id="gLofOqiBvSkkC2DL_xkw-42" value="" style="endArrow=none;html=1;rounded=0;exitX=0.5;exitY=1;exitDx=0;exitDy=0;entryX=0.5;entryY=0;entryDx=0;entryDy=0;fontStyle=1" edge="1" parent="1" source="gLofOqiBvSkkC2DL_xkw-38" target="gLofOqiBvSkkC2DL_xkw-37">
          <mxGeometry relative="1" as="geometry">
            <mxPoint x="650" y="10" as="sourcePoint" />
            <mxPoint x="810" y="10" as="targetPoint" />
          </mxGeometry>
        </mxCell>
        <mxCell id="gLofOqiBvSkkC2DL_xkw-44" value="" style="endArrow=none;html=1;rounded=0;exitX=1;exitY=1;exitDx=0;exitDy=0;entryX=0.361;entryY=0.002;entryDx=0;entryDy=0;entryPerimeter=0;fontStyle=1" edge="1" parent="1" source="gLofOqiBvSkkC2DL_xkw-40" target="gLofOqiBvSkkC2DL_xkw-37">
          <mxGeometry relative="1" as="geometry">
            <mxPoint x="680" y="-20" as="sourcePoint" />
            <mxPoint x="680" y="40" as="targetPoint" />
          </mxGeometry>
        </mxCell>
        <mxCell id="gLofOqiBvSkkC2DL_xkw-45" value="" style="endArrow=none;html=1;rounded=0;exitX=0;exitY=1;exitDx=0;exitDy=0;entryX=0.708;entryY=-0.008;entryDx=0;entryDy=0;entryPerimeter=0;fontStyle=1" edge="1" parent="1" source="gLofOqiBvSkkC2DL_xkw-39" target="gLofOqiBvSkkC2DL_xkw-37">
          <mxGeometry relative="1" as="geometry">
            <mxPoint x="635" y="14" as="sourcePoint" />
            <mxPoint x="666" y="40" as="targetPoint" />
          </mxGeometry>
        </mxCell>
        <mxCell id="gLofOqiBvSkkC2DL_xkw-46" value="" style="endArrow=none;html=1;rounded=0;exitX=0;exitY=0.5;exitDx=0;exitDy=0;entryX=1;entryY=0.5;entryDx=0;entryDy=0;fontStyle=1" edge="1" parent="1" source="gLofOqiBvSkkC2DL_xkw-41" target="gLofOqiBvSkkC2DL_xkw-37">
          <mxGeometry relative="1" as="geometry">
            <mxPoint x="725" y="14" as="sourcePoint" />
            <mxPoint x="701" y="40" as="targetPoint" />
          </mxGeometry>
        </mxCell>
        <mxCell id="gLofOqiBvSkkC2DL_xkw-47" value="&lt;span&gt;Rent&lt;/span&gt;" style="shape=rhombus;perimeter=rhombusPerimeter;whiteSpace=wrap;html=1;align=center;fontStyle=1" vertex="1" parent="1">
          <mxGeometry x="410" y="65" width="90" height="40" as="geometry" />
        </mxCell>
        <mxCell id="gLofOqiBvSkkC2DL_xkw-48" value="" style="endArrow=none;html=1;rounded=0;exitX=0.988;exitY=0.014;exitDx=0;exitDy=0;entryX=0.5;entryY=1;entryDx=0;entryDy=0;exitPerimeter=0;fontStyle=1" edge="1" parent="1" source="gLofOqiBvSkkC2DL_xkw-1" target="gLofOqiBvSkkC2DL_xkw-47">
          <mxGeometry relative="1" as="geometry">
            <mxPoint x="340" y="225" as="sourcePoint" />
            <mxPoint x="420" y="225" as="targetPoint" />
            <Array as="points">
              <mxPoint x="400" y="200" />
              <mxPoint x="400" y="170" />
              <mxPoint x="456" y="170" />
            </Array>
          </mxGeometry>
        </mxCell>
        <mxCell id="gLofOqiBvSkkC2DL_xkw-49" value="" style="endArrow=none;html=1;rounded=0;exitX=0.5;exitY=0;exitDx=0;exitDy=0;entryX=-0.011;entryY=0.338;entryDx=0;entryDy=0;fontStyle=1;entryPerimeter=0;" edge="1" parent="1" source="gLofOqiBvSkkC2DL_xkw-47" target="gLofOqiBvSkkC2DL_xkw-37">
          <mxGeometry relative="1" as="geometry">
            <mxPoint x="520" y="84.71000000000001" as="sourcePoint" />
            <mxPoint x="630" y="84.71000000000001" as="targetPoint" />
            <Array as="points">
              <mxPoint x="455" y="40" />
            </Array>
          </mxGeometry>
        </mxCell>
        <mxCell id="gLofOqiBvSkkC2DL_xkw-50" value="&lt;span&gt;Guide&lt;/span&gt;" style="rounded=1;arcSize=10;whiteSpace=wrap;html=1;align=center;fontStyle=1" vertex="1" parent="1">
          <mxGeometry x="1007.5" y="-35" width="100" height="30" as="geometry" />
        </mxCell>
        <mxCell id="gLofOqiBvSkkC2DL_xkw-51" value="&lt;span&gt;Employee ID&lt;/span&gt;" style="ellipse;whiteSpace=wrap;html=1;align=center;fontStyle=5;" vertex="1" parent="1">
          <mxGeometry x="1017.5" y="-160" width="90" height="40" as="geometry" />
        </mxCell>
        <mxCell id="gLofOqiBvSkkC2DL_xkw-52" value="&lt;span&gt;Name&lt;/span&gt;" style="ellipse;whiteSpace=wrap;html=1;align=center;fontStyle=1" vertex="1" parent="1">
          <mxGeometry x="977.5" y="-120" width="60" height="40" as="geometry" />
        </mxCell>
        <mxCell id="gLofOqiBvSkkC2DL_xkw-53" value="&lt;span&gt;Address&lt;/span&gt;" style="ellipse;whiteSpace=wrap;html=1;align=center;fontStyle=1" vertex="1" parent="1">
          <mxGeometry x="1067.5" y="-120" width="70" height="40" as="geometry" />
        </mxCell>
        <mxCell id="gLofOqiBvSkkC2DL_xkw-54" value="&lt;span&gt;Telephone Number&lt;/span&gt;" style="ellipse;shape=doubleEllipse;margin=3;whiteSpace=wrap;html=1;align=center;fontStyle=1" vertex="1" parent="1">
          <mxGeometry x="1157.5" y="-110" width="80" height="50" as="geometry" />
        </mxCell>
        <mxCell id="gLofOqiBvSkkC2DL_xkw-55" value="&lt;span&gt;Date of &lt;br&gt;Birth&lt;/span&gt;" style="ellipse;whiteSpace=wrap;html=1;align=center;dashed=1;fontStyle=1" vertex="1" parent="1">
          <mxGeometry x="927.5" y="-85" width="70" height="50" as="geometry" />
        </mxCell>
        <mxCell id="gLofOqiBvSkkC2DL_xkw-57" value="&lt;span&gt;Employee Start Date&lt;/span&gt;" style="ellipse;whiteSpace=wrap;html=1;align=center;dashed=1;fontStyle=1" vertex="1" parent="1">
          <mxGeometry x="1127.5" y="-160" width="110" height="40" as="geometry" />
        </mxCell>
        <mxCell id="gLofOqiBvSkkC2DL_xkw-59" value="" style="endArrow=none;html=1;rounded=0;exitX=0.969;exitY=0.732;exitDx=0;exitDy=0;exitPerimeter=0;entryX=0.104;entryY=-0.01;entryDx=0;entryDy=0;entryPerimeter=0;fontStyle=1" edge="1" parent="1" source="gLofOqiBvSkkC2DL_xkw-55" target="gLofOqiBvSkkC2DL_xkw-50">
          <mxGeometry relative="1" as="geometry">
            <mxPoint x="987.5" y="-60" as="sourcePoint" />
            <mxPoint x="1147.5" y="-60" as="targetPoint" />
          </mxGeometry>
        </mxCell>
        <mxCell id="gLofOqiBvSkkC2DL_xkw-60" value="" style="endArrow=none;html=1;rounded=0;exitX=0.581;exitY=0.975;exitDx=0;exitDy=0;entryX=0.25;entryY=0;entryDx=0;entryDy=0;exitPerimeter=0;fontStyle=1" edge="1" parent="1" source="gLofOqiBvSkkC2DL_xkw-52" target="gLofOqiBvSkkC2DL_xkw-50">
          <mxGeometry relative="1" as="geometry">
            <mxPoint x="1027.5" y="-90" as="sourcePoint" />
            <mxPoint x="1187.5" y="-90" as="targetPoint" />
          </mxGeometry>
        </mxCell>
        <mxCell id="gLofOqiBvSkkC2DL_xkw-61" value="" style="endArrow=none;html=1;rounded=0;exitX=0.5;exitY=0;exitDx=0;exitDy=0;entryX=0.427;entryY=1;entryDx=0;entryDy=0;entryPerimeter=0;fontStyle=1" edge="1" parent="1" source="gLofOqiBvSkkC2DL_xkw-50" target="gLofOqiBvSkkC2DL_xkw-51">
          <mxGeometry relative="1" as="geometry">
            <mxPoint x="1047.5" y="-90" as="sourcePoint" />
            <mxPoint x="1207.5" y="-90" as="targetPoint" />
          </mxGeometry>
        </mxCell>
        <mxCell id="gLofOqiBvSkkC2DL_xkw-62" value="" style="endArrow=none;html=1;rounded=0;exitX=0.75;exitY=0;exitDx=0;exitDy=0;entryX=0.337;entryY=1;entryDx=0;entryDy=0;entryPerimeter=0;fontStyle=1" edge="1" parent="1" source="gLofOqiBvSkkC2DL_xkw-50" target="gLofOqiBvSkkC2DL_xkw-53">
          <mxGeometry relative="1" as="geometry">
            <mxPoint x="1077.5" y="-70" as="sourcePoint" />
            <mxPoint x="1237.5" y="-70" as="targetPoint" />
          </mxGeometry>
        </mxCell>
        <mxCell id="gLofOqiBvSkkC2DL_xkw-63" value="" style="endArrow=none;html=1;rounded=0;exitX=1;exitY=0;exitDx=0;exitDy=0;entryX=0.075;entryY=0.744;entryDx=0;entryDy=0;entryPerimeter=0;fontStyle=1" edge="1" parent="1" source="gLofOqiBvSkkC2DL_xkw-50" target="gLofOqiBvSkkC2DL_xkw-54">
          <mxGeometry relative="1" as="geometry">
            <mxPoint x="1092.5" y="-25" as="sourcePoint" />
            <mxPoint x="1161.5" y="-110" as="targetPoint" />
          </mxGeometry>
        </mxCell>
        <mxCell id="gLofOqiBvSkkC2DL_xkw-64" value="" style="endArrow=none;html=1;rounded=0;exitX=1;exitY=0.5;exitDx=0;exitDy=0;entryX=0;entryY=0.5;entryDx=0;entryDy=0;fontStyle=1" edge="1" parent="1" source="gLofOqiBvSkkC2DL_xkw-50" target="gLofOqiBvSkkC2DL_xkw-84">
          <mxGeometry relative="1" as="geometry">
            <mxPoint x="1117.5" y="-25" as="sourcePoint" />
            <mxPoint x="1139.1999999999998" y="-20" as="targetPoint" />
          </mxGeometry>
        </mxCell>
        <mxCell id="gLofOqiBvSkkC2DL_xkw-65" value="" style="endArrow=none;html=1;rounded=0;exitX=0.891;exitY=0.017;exitDx=0;exitDy=0;exitPerimeter=0;entryX=0.344;entryY=0.971;entryDx=0;entryDy=0;entryPerimeter=0;fontStyle=1" edge="1" parent="1" source="gLofOqiBvSkkC2DL_xkw-50" target="gLofOqiBvSkkC2DL_xkw-57">
          <mxGeometry relative="1" as="geometry">
            <mxPoint x="1097.5" y="-70" as="sourcePoint" />
            <mxPoint x="1257.5" y="-70" as="targetPoint" />
          </mxGeometry>
        </mxCell>
        <mxCell id="gLofOqiBvSkkC2DL_xkw-66" value="&lt;span&gt;Coordinator&amp;nbsp;&lt;/span&gt;" style="rounded=1;arcSize=10;whiteSpace=wrap;html=1;align=center;fontStyle=1" vertex="1" parent="1">
          <mxGeometry x="1217.5" y="205" width="100" height="30" as="geometry" />
        </mxCell>
        <mxCell id="gLofOqiBvSkkC2DL_xkw-67" value="&lt;span&gt;Rent&lt;/span&gt;" style="shape=rhombus;perimeter=rhombusPerimeter;whiteSpace=wrap;html=1;align=center;fontStyle=1" vertex="1" parent="1">
          <mxGeometry x="890" y="90" width="90" height="40" as="geometry" />
        </mxCell>
        <mxCell id="gLofOqiBvSkkC2DL_xkw-68" value="" style="endArrow=none;html=1;rounded=0;exitX=0.996;exitY=0.319;exitDx=0;exitDy=0;entryX=0.314;entryY=0.786;entryDx=0;entryDy=0;exitPerimeter=0;entryPerimeter=0;fontStyle=1" edge="1" parent="1" source="gLofOqiBvSkkC2DL_xkw-15" target="gLofOqiBvSkkC2DL_xkw-67">
          <mxGeometry relative="1" as="geometry">
            <mxPoint x="780" y="210" as="sourcePoint" />
            <mxPoint x="920" y="140" as="targetPoint" />
            <Array as="points">
              <mxPoint x="750" y="210" />
            </Array>
          </mxGeometry>
        </mxCell>
        <mxCell id="gLofOqiBvSkkC2DL_xkw-69" value="" style="endArrow=none;html=1;rounded=0;exitX=1;exitY=0;exitDx=0;exitDy=0;entryX=0.5;entryY=1;entryDx=0;entryDy=0;fontStyle=1" edge="1" parent="1" source="gLofOqiBvSkkC2DL_xkw-67" target="gLofOqiBvSkkC2DL_xkw-50">
          <mxGeometry relative="1" as="geometry">
            <mxPoint x="920" y="115" as="sourcePoint" />
            <mxPoint x="1127.5" y="60" as="targetPoint" />
            <Array as="points">
              <mxPoint x="1057.5" y="55" />
            </Array>
          </mxGeometry>
        </mxCell>
        <mxCell id="gLofOqiBvSkkC2DL_xkw-70" value="&lt;span&gt;Coordinate&amp;nbsp;&lt;/span&gt;" style="shape=rhombus;perimeter=rhombusPerimeter;whiteSpace=wrap;html=1;align=center;fontStyle=1" vertex="1" parent="1">
          <mxGeometry x="890" y="200" width="90" height="40" as="geometry" />
        </mxCell>
        <mxCell id="gLofOqiBvSkkC2DL_xkw-71" value="" style="endArrow=none;html=1;rounded=0;exitX=1.002;exitY=0.667;exitDx=0;exitDy=0;entryX=0;entryY=0.5;entryDx=0;entryDy=0;exitPerimeter=0;fontStyle=1" edge="1" parent="1" source="gLofOqiBvSkkC2DL_xkw-15" target="gLofOqiBvSkkC2DL_xkw-70">
          <mxGeometry relative="1" as="geometry">
            <mxPoint x="730" y="230" as="sourcePoint" />
            <mxPoint x="890" y="230" as="targetPoint" />
          </mxGeometry>
        </mxCell>
        <mxCell id="gLofOqiBvSkkC2DL_xkw-73" value="&lt;span&gt;Coordinator ID&lt;/span&gt;" style="ellipse;whiteSpace=wrap;html=1;align=center;fontStyle=5;" vertex="1" parent="1">
          <mxGeometry x="1100" y="137.5" width="100" height="55" as="geometry" />
        </mxCell>
        <mxCell id="gLofOqiBvSkkC2DL_xkw-74" value="&lt;span&gt;Name&lt;/span&gt;" style="ellipse;whiteSpace=wrap;html=1;align=center;fontStyle=1" vertex="1" parent="1">
          <mxGeometry x="1181" y="97.5" width="60" height="40" as="geometry" />
        </mxCell>
        <mxCell id="gLofOqiBvSkkC2DL_xkw-75" value="&lt;span&gt;Address&lt;/span&gt;" style="ellipse;whiteSpace=wrap;html=1;align=center;fontStyle=1" vertex="1" parent="1">
          <mxGeometry x="1232.5" y="125" width="70" height="40" as="geometry" />
        </mxCell>
        <mxCell id="gLofOqiBvSkkC2DL_xkw-76" value="&lt;span&gt;Telephone Number&lt;/span&gt;" style="ellipse;shape=doubleEllipse;margin=3;whiteSpace=wrap;html=1;align=center;fontStyle=1" vertex="1" parent="1">
          <mxGeometry x="1342.5" y="150" width="80" height="50" as="geometry" />
        </mxCell>
        <mxCell id="gLofOqiBvSkkC2DL_xkw-78" value="&lt;span&gt;Qualifications&lt;/span&gt;" style="ellipse;shape=doubleEllipse;margin=3;whiteSpace=wrap;html=1;align=center;fontStyle=1" vertex="1" parent="1">
          <mxGeometry x="1292.5" y="87.5" width="95" height="55" as="geometry" />
        </mxCell>
        <mxCell id="gLofOqiBvSkkC2DL_xkw-79" value="" style="endArrow=none;html=1;rounded=0;exitX=0.73;exitY=0.963;exitDx=0;exitDy=0;entryX=0;entryY=0.5;entryDx=0;entryDy=0;exitPerimeter=0;fontStyle=1" edge="1" parent="1" source="gLofOqiBvSkkC2DL_xkw-73" target="gLofOqiBvSkkC2DL_xkw-66">
          <mxGeometry relative="1" as="geometry">
            <mxPoint x="830.5" y="367.5" as="sourcePoint" />
            <mxPoint x="990.5" y="367.5" as="targetPoint" />
          </mxGeometry>
        </mxCell>
        <mxCell id="gLofOqiBvSkkC2DL_xkw-84" value="&lt;span style=&quot;border-color: var(--border-color);&quot;&gt;Special&lt;br style=&quot;border-color: var(--border-color);&quot;&gt;Training Areas&lt;/span&gt;" style="ellipse;shape=doubleEllipse;margin=3;whiteSpace=wrap;html=1;align=center;fontStyle=1" vertex="1" parent="1">
          <mxGeometry x="1146.5" y="-47.5" width="102" height="55" as="geometry" />
        </mxCell>
        <mxCell id="gLofOqiBvSkkC2DL_xkw-85" value="" style="endArrow=none;html=1;rounded=0;exitX=0.5;exitY=1;exitDx=0;exitDy=0;entryX=0.25;entryY=0;entryDx=0;entryDy=0;fontStyle=1" edge="1" parent="1" source="gLofOqiBvSkkC2DL_xkw-74" target="gLofOqiBvSkkC2DL_xkw-66">
          <mxGeometry relative="1" as="geometry">
            <mxPoint x="1252.5" y="175" as="sourcePoint" />
            <mxPoint x="1412.5" y="175" as="targetPoint" />
          </mxGeometry>
        </mxCell>
        <mxCell id="gLofOqiBvSkkC2DL_xkw-86" value="" style="endArrow=none;html=1;rounded=0;exitX=0.5;exitY=0;exitDx=0;exitDy=0;entryX=0.5;entryY=1;entryDx=0;entryDy=0;fontStyle=1" edge="1" parent="1" source="gLofOqiBvSkkC2DL_xkw-66" target="gLofOqiBvSkkC2DL_xkw-75">
          <mxGeometry relative="1" as="geometry">
            <mxPoint x="1262.5" y="150" as="sourcePoint" />
            <mxPoint x="1422.5" y="150" as="targetPoint" />
          </mxGeometry>
        </mxCell>
        <mxCell id="gLofOqiBvSkkC2DL_xkw-87" value="" style="endArrow=none;html=1;rounded=0;exitX=0.75;exitY=0;exitDx=0;exitDy=0;entryX=0.5;entryY=1;entryDx=0;entryDy=0;fontStyle=1" edge="1" parent="1" source="gLofOqiBvSkkC2DL_xkw-66" target="gLofOqiBvSkkC2DL_xkw-78">
          <mxGeometry relative="1" as="geometry">
            <mxPoint x="1282.5" y="185" as="sourcePoint" />
            <mxPoint x="1442.5" y="185" as="targetPoint" />
          </mxGeometry>
        </mxCell>
        <mxCell id="gLofOqiBvSkkC2DL_xkw-88" value="" style="endArrow=none;html=1;rounded=0;exitX=1;exitY=0.25;exitDx=0;exitDy=0;entryX=0;entryY=1;entryDx=0;entryDy=0;fontStyle=1" edge="1" parent="1" source="gLofOqiBvSkkC2DL_xkw-66" target="gLofOqiBvSkkC2DL_xkw-76">
          <mxGeometry relative="1" as="geometry">
            <mxPoint x="1332.5" y="215" as="sourcePoint" />
            <mxPoint x="1492.5" y="215" as="targetPoint" />
          </mxGeometry>
        </mxCell>
        <mxCell id="gLofOqiBvSkkC2DL_xkw-89" value="" style="endArrow=none;html=1;rounded=0;exitX=1;exitY=0.5;exitDx=0;exitDy=0;entryX=0;entryY=0.5;entryDx=0;entryDy=0;fontStyle=1" edge="1" parent="1" source="gLofOqiBvSkkC2DL_xkw-70" target="gLofOqiBvSkkC2DL_xkw-66">
          <mxGeometry relative="1" as="geometry">
            <mxPoint x="1010" y="210" as="sourcePoint" />
            <mxPoint x="1170" y="210" as="targetPoint" />
          </mxGeometry>
        </mxCell>
        <mxCell id="gLofOqiBvSkkC2DL_xkw-90" value="&lt;span&gt;Hotel&lt;/span&gt;" style="rounded=1;arcSize=10;whiteSpace=wrap;html=1;align=center;fontStyle=1" vertex="1" parent="1">
          <mxGeometry x="885" y="360" width="100" height="30" as="geometry" />
        </mxCell>
        <mxCell id="gLofOqiBvSkkC2DL_xkw-91" value="&lt;span&gt;Hotel Number&lt;/span&gt;" style="ellipse;whiteSpace=wrap;html=1;align=center;fontStyle=5;" vertex="1" parent="1">
          <mxGeometry x="890" y="490" width="100" height="40" as="geometry" />
        </mxCell>
        <mxCell id="gLofOqiBvSkkC2DL_xkw-92" value="&lt;span&gt;Name&lt;/span&gt;" style="ellipse;whiteSpace=wrap;html=1;align=center;fontStyle=1" vertex="1" parent="1">
          <mxGeometry x="985" y="450" width="60" height="40" as="geometry" />
        </mxCell>
        <mxCell id="gLofOqiBvSkkC2DL_xkw-93" value="&lt;span&gt;Address&lt;/span&gt;" style="ellipse;whiteSpace=wrap;html=1;align=center;fontStyle=1" vertex="1" parent="1">
          <mxGeometry x="830" y="450" width="70" height="40" as="geometry" />
        </mxCell>
        <mxCell id="gLofOqiBvSkkC2DL_xkw-94" value="&lt;span&gt;Telephone Number&lt;/span&gt;" style="ellipse;shape=doubleEllipse;margin=3;whiteSpace=wrap;html=1;align=center;fontStyle=1" vertex="1" parent="1">
          <mxGeometry x="770" y="350" width="80" height="50" as="geometry" />
        </mxCell>
        <mxCell id="gLofOqiBvSkkC2DL_xkw-95" value="Room&lt;br&gt;Rent" style="ellipse;whiteSpace=wrap;html=1;align=center;fontStyle=1" vertex="1" parent="1">
          <mxGeometry x="780" y="410" width="80" height="40" as="geometry" />
        </mxCell>
        <mxCell id="gLofOqiBvSkkC2DL_xkw-96" value="&lt;b&gt;Facilities&lt;/b&gt;" style="ellipse;shape=doubleEllipse;margin=3;whiteSpace=wrap;html=1;align=center;" vertex="1" parent="1">
          <mxGeometry x="1021.5" y="400" width="82" height="50" as="geometry" />
        </mxCell>
        <mxCell id="gLofOqiBvSkkC2DL_xkw-97" value="" style="endArrow=none;html=1;rounded=0;exitX=1;exitY=0.5;exitDx=0;exitDy=0;entryX=0;entryY=0.5;entryDx=0;entryDy=0;" edge="1" parent="1" source="gLofOqiBvSkkC2DL_xkw-94" target="gLofOqiBvSkkC2DL_xkw-90">
          <mxGeometry relative="1" as="geometry">
            <mxPoint x="860" y="380" as="sourcePoint" />
            <mxPoint x="1020" y="380" as="targetPoint" />
          </mxGeometry>
        </mxCell>
        <mxCell id="gLofOqiBvSkkC2DL_xkw-98" value="" style="endArrow=none;html=1;rounded=0;exitX=1;exitY=0;exitDx=0;exitDy=0;entryX=0;entryY=1;entryDx=0;entryDy=0;" edge="1" parent="1" source="gLofOqiBvSkkC2DL_xkw-95" target="gLofOqiBvSkkC2DL_xkw-90">
          <mxGeometry relative="1" as="geometry">
            <mxPoint x="860" y="410" as="sourcePoint" />
            <mxPoint x="1020" y="410" as="targetPoint" />
          </mxGeometry>
        </mxCell>
        <mxCell id="gLofOqiBvSkkC2DL_xkw-99" value="" style="endArrow=none;html=1;rounded=0;exitX=1;exitY=1;exitDx=0;exitDy=0;entryX=0.067;entryY=0.25;entryDx=0;entryDy=0;entryPerimeter=0;" edge="1" parent="1" source="gLofOqiBvSkkC2DL_xkw-90" target="gLofOqiBvSkkC2DL_xkw-96">
          <mxGeometry relative="1" as="geometry">
            <mxPoint x="1010" y="400" as="sourcePoint" />
            <mxPoint x="1170" y="400" as="targetPoint" />
          </mxGeometry>
        </mxCell>
        <mxCell id="gLofOqiBvSkkC2DL_xkw-100" value="" style="endArrow=none;html=1;rounded=0;exitX=0.662;exitY=0.029;exitDx=0;exitDy=0;exitPerimeter=0;entryX=0.25;entryY=1;entryDx=0;entryDy=0;" edge="1" parent="1" source="gLofOqiBvSkkC2DL_xkw-93" target="gLofOqiBvSkkC2DL_xkw-90">
          <mxGeometry relative="1" as="geometry">
            <mxPoint x="890" y="430" as="sourcePoint" />
            <mxPoint x="1050" y="430" as="targetPoint" />
          </mxGeometry>
        </mxCell>
        <mxCell id="gLofOqiBvSkkC2DL_xkw-101" value="" style="endArrow=none;html=1;rounded=0;exitX=0.805;exitY=1.053;exitDx=0;exitDy=0;exitPerimeter=0;entryX=0.5;entryY=0;entryDx=0;entryDy=0;" edge="1" parent="1" source="gLofOqiBvSkkC2DL_xkw-90" target="gLofOqiBvSkkC2DL_xkw-92">
          <mxGeometry relative="1" as="geometry">
            <mxPoint x="920" y="430" as="sourcePoint" />
            <mxPoint x="1080" y="430" as="targetPoint" />
          </mxGeometry>
        </mxCell>
        <mxCell id="gLofOqiBvSkkC2DL_xkw-102" value="" style="endArrow=none;html=1;rounded=0;exitX=0.5;exitY=0;exitDx=0;exitDy=0;entryX=0.543;entryY=0.983;entryDx=0;entryDy=0;entryPerimeter=0;" edge="1" parent="1" source="gLofOqiBvSkkC2DL_xkw-91" target="gLofOqiBvSkkC2DL_xkw-90">
          <mxGeometry relative="1" as="geometry">
            <mxPoint x="930" y="440" as="sourcePoint" />
            <mxPoint x="1090" y="440" as="targetPoint" />
          </mxGeometry>
        </mxCell>
        <mxCell id="gLofOqiBvSkkC2DL_xkw-103" value="&lt;span style=&quot;font-weight: normal;&quot;&gt;Book&lt;/span&gt;" style="shape=rhombus;perimeter=rhombusPerimeter;whiteSpace=wrap;html=1;align=center;fontStyle=1" vertex="1" parent="1">
          <mxGeometry x="1056.5" y="277.5" width="90" height="40" as="geometry" />
        </mxCell>
        <mxCell id="gLofOqiBvSkkC2DL_xkw-104" value="" style="endArrow=none;html=1;rounded=0;exitX=1;exitY=0;exitDx=0;exitDy=0;entryX=0;entryY=1;entryDx=0;entryDy=0;" edge="1" parent="1" source="gLofOqiBvSkkC2DL_xkw-90" target="gLofOqiBvSkkC2DL_xkw-103">
          <mxGeometry relative="1" as="geometry">
            <mxPoint x="980" y="330" as="sourcePoint" />
            <mxPoint x="1140" y="330" as="targetPoint" />
          </mxGeometry>
        </mxCell>
        <mxCell id="gLofOqiBvSkkC2DL_xkw-105" value="" style="endArrow=none;html=1;rounded=0;exitX=1;exitY=0;exitDx=0;exitDy=0;entryX=0;entryY=1;entryDx=0;entryDy=0;" edge="1" parent="1" source="gLofOqiBvSkkC2DL_xkw-103" target="gLofOqiBvSkkC2DL_xkw-66">
          <mxGeometry relative="1" as="geometry">
            <mxPoint x="1200" y="290" as="sourcePoint" />
            <mxPoint x="1360" y="290" as="targetPoint" />
          </mxGeometry>
        </mxCell>
        <mxCell id="gLofOqiBvSkkC2DL_xkw-106" value="&lt;b&gt;M&lt;/b&gt;" style="text;strokeColor=none;fillColor=none;spacingLeft=4;spacingRight=4;overflow=hidden;rotatable=0;points=[[0,0.5],[1,0.5]];portConstraint=eastwest;fontSize=12;whiteSpace=wrap;html=1;" vertex="1" parent="1">
          <mxGeometry x="330" y="210" width="40" height="30" as="geometry" />
        </mxCell>
        <mxCell id="gLofOqiBvSkkC2DL_xkw-107" value="&lt;b&gt;M&lt;/b&gt;" style="text;strokeColor=none;fillColor=none;spacingLeft=4;spacingRight=4;overflow=hidden;rotatable=0;points=[[0,0.5],[1,0.5]];portConstraint=eastwest;fontSize=12;whiteSpace=wrap;html=1;" vertex="1" parent="1">
          <mxGeometry x="580" y="190" width="40" height="30" as="geometry" />
        </mxCell>
        <mxCell id="gLofOqiBvSkkC2DL_xkw-108" value="&lt;b&gt;1&lt;/b&gt;" style="text;strokeColor=none;fillColor=none;spacingLeft=4;spacingRight=4;overflow=hidden;rotatable=0;points=[[0,0.5],[1,0.5]];portConstraint=eastwest;fontSize=12;whiteSpace=wrap;html=1;" vertex="1" parent="1">
          <mxGeometry x="350" y="175" width="40" height="30" as="geometry" />
        </mxCell>
        <mxCell id="gLofOqiBvSkkC2DL_xkw-109" value="&lt;b&gt;M&lt;/b&gt;" style="text;strokeColor=none;fillColor=none;spacingLeft=4;spacingRight=4;overflow=hidden;rotatable=0;points=[[0,0.5],[1,0.5]];portConstraint=eastwest;fontSize=12;whiteSpace=wrap;html=1;" vertex="1" parent="1">
          <mxGeometry x="595" y="20" width="40" height="30" as="geometry" />
        </mxCell>
        <mxCell id="gLofOqiBvSkkC2DL_xkw-110" value="&lt;b&gt;1&lt;/b&gt;" style="text;strokeColor=none;fillColor=none;spacingLeft=4;spacingRight=4;overflow=hidden;rotatable=0;points=[[0,0.5],[1,0.5]];portConstraint=eastwest;fontSize=12;whiteSpace=wrap;html=1;" vertex="1" parent="1">
          <mxGeometry x="1155.5" y="195" width="40" height="30" as="geometry" />
        </mxCell>
        <mxCell id="gLofOqiBvSkkC2DL_xkw-111" value="&lt;b&gt;M&lt;/b&gt;" style="text;strokeColor=none;fillColor=none;spacingLeft=4;spacingRight=4;overflow=hidden;rotatable=0;points=[[0,0.5],[1,0.5]];portConstraint=eastwest;fontSize=12;whiteSpace=wrap;html=1;" vertex="1" parent="1">
          <mxGeometry x="800" y="195" width="40" height="30" as="geometry" />
        </mxCell>
        <mxCell id="gLofOqiBvSkkC2DL_xkw-112" value="&lt;b&gt;1&lt;/b&gt;" style="text;strokeColor=none;fillColor=none;spacingLeft=4;spacingRight=4;overflow=hidden;rotatable=0;points=[[0,0.5],[1,0.5]];portConstraint=eastwest;fontSize=12;whiteSpace=wrap;html=1;" vertex="1" parent="1">
          <mxGeometry x="730" y="185" width="40" height="30" as="geometry" />
        </mxCell>
        <mxCell id="gLofOqiBvSkkC2DL_xkw-113" value="&lt;b&gt;1&lt;/b&gt;" style="text;strokeColor=none;fillColor=none;spacingLeft=4;spacingRight=4;overflow=hidden;rotatable=0;points=[[0,0.5],[1,0.5]];portConstraint=eastwest;fontSize=12;whiteSpace=wrap;html=1;" vertex="1" parent="1">
          <mxGeometry x="1027.5" y="-5" width="40" height="30" as="geometry" />
        </mxCell>
        <mxCell id="gLofOqiBvSkkC2DL_xkw-114" value="&lt;b&gt;M&lt;/b&gt;" style="text;strokeColor=none;fillColor=none;spacingLeft=4;spacingRight=4;overflow=hidden;rotatable=0;points=[[0,0.5],[1,0.5]];portConstraint=eastwest;fontSize=12;whiteSpace=wrap;html=1;" vertex="1" parent="1">
          <mxGeometry x="1208.5" y="240" width="40" height="30" as="geometry" />
        </mxCell>
        <mxCell id="gLofOqiBvSkkC2DL_xkw-115" value="&lt;b&gt;M&lt;/b&gt;" style="text;strokeColor=none;fillColor=none;spacingLeft=4;spacingRight=4;overflow=hidden;rotatable=0;points=[[0,0.5],[1,0.5]];portConstraint=eastwest;fontSize=12;whiteSpace=wrap;html=1;" vertex="1" parent="1">
          <mxGeometry x="967.5" y="330" width="40" height="30" as="geometry" />
        </mxCell>
      </root>
    </mxGraphModel>
  </diagram>
</mxfile>
